<svg xmlns="http://www.w3.org/2000/svg" width="660" height="660" viewBox="-10 -5 220 220">
<defs><filter id="brush4" x="-10%" y="-10%" width="120%" height="120%"><feTurbulence type="fractalNoise" baseFrequency="0.05" numOctaves="2" seed="7"/><feDisplacementMap in="SourceGraphic" scale="3"/></filter><clipPath id="clip4"><path d="M34 50 L56 50 L68 20 L90 50 L110 50 L132 20 L144 50 L166 50 L166.0 95.0 C154.0 87.0 142.0 97.0 142.0 111.0 C142.0 125.0 154.0 135.0 166.0 127.0 L166 172 L116.0 172.0 C124.0 160.0 114.0 148.0 100.0 148.0 C86.0 148.0 76.0 160.0 84.0 172.0 L34 172 L34.0 127.0 C20.0 135.0 6.0 125.0 6.0 111.0 C6.0 97.0 20.0 87.0 34.0 95.0 L34 50 Z"/></clipPath></defs>
<g transform="rotate(10 100 110)">
<g filter="url(#brush4)">
<path d="M34 50 L56 50 L68 20 L90 50 L110 50 L132 20 L144 50 L166 50 L166.0 95.0 C154.0 87.0 142.0 97.0 142.0 111.0 C142.0 125.0 154.0 135.0 166.0 127.0 L166 172 L116.0 172.0 C124.0 160.0 114.0 148.0 100.0 148.0 C86.0 148.0 76.0 160.0 84.0 172.0 L34 172 L34.0 127.0 C20.0 135.0 6.0 125.0 6.0 111.0 C6.0 97.0 20.0 87.0 34.0 95.0 L34 50 Z" fill="#fdfcf9" stroke="#22201d" stroke-width="4" stroke-linejoin="round"/>
<path d="M58 49 L68 22 L88 49 Z" fill="#6b5446"/><path d="M112 49 L132 22 L142 49 Z" fill="#6b5446"/>
</g>
<path d="M66 46 L69 33 L78 46 Z" fill="#e8c3bd"/><path d="M134 46 L131 33 L122 46 Z" fill="#e8c3bd"/>
<g clip-path="url(#clip4)"><path d="M34 138 Q100 128 166 138 L166 210 L34 210 Z" fill="#ecdfcf" opacity="1"/><path d="M78 168 L122 168 L122 210 L78 210 Z" fill="#6b5446" opacity="0.92"/><path d="M58 136 Q68 148 79 136 Q90 150 100 136 Q110 150 121 136 Q132 148 142 136 L142 131 L58 131 Z" fill="#fdfcf9"/><path d="M34 68 Q66 56 100 60 Q134 56 166 68 L166 106 Q150 126 124 128 Q112 133 100 133 Q88 133 76 128 Q50 126 34 106 Z" fill="#6b5446" opacity="0.92"/><circle cx="78" cy="90" r="11" fill="#6aa84a"/><circle cx="78" cy="93" r="6" fill="#22201d"/><circle cx="82.0" cy="87.0" r="2.8" fill="#fff"/><circle cx="75.0" cy="96.0" r="1.2" fill="#fff"/><path d="M66.5 89 A11.5 11.5 0 0 1 89.5 89 Z" fill="#b9b1a8"/><path d="M65 89 L91 89" stroke="#22201d" stroke-width="3" stroke-linecap="round"/><circle cx="122" cy="90" r="11" fill="#6aa84a"/><circle cx="122" cy="93" r="6" fill="#22201d"/><circle cx="126.0" cy="87.0" r="2.8" fill="#fff"/><circle cx="119.0" cy="96.0" r="1.2" fill="#fff"/><path d="M110.5 89 A11.5 11.5 0 0 1 133.5 89 Z" fill="#b9b1a8"/><path d="M109 89 L135 89" stroke="#22201d" stroke-width="3" stroke-linecap="round"/><path d="M94 107 L106 107 L100 114 Z" fill="#6a4a42"/><path d="M90 119 Q103 123 113 113" fill="none" stroke="#22201d" stroke-width="2.6" stroke-linecap="round"/></g>
</g>

</svg>